<svg width="26" height="26" viewBox="0 0 26 26" fill="none" xmlns="http://www.w3.org/2000/svg">
<g clip-path="url(#clip0_32_20)">
<path fill-rule="evenodd" clip-rule="evenodd" d="M13.2004 2.62275C13.3599 2.39795 13.599 2.24238 13.8691 2.18772C14.1393 2.13306 14.4201 2.18341 14.6544 2.32853C14.8887 2.47365 15.0589 2.70261 15.1303 2.96881C15.2018 3.23501 15.169 3.51841 15.0388 3.76133L14.9662 3.87725L14.6434 4.33333H17.875C18.2789 4.33335 18.6684 4.48382 18.9674 4.75542C19.2665 5.02701 19.4536 5.40024 19.4924 5.80233L19.5 5.95833V7.58333L19.4967 7.67433C20.0839 7.88016 20.5172 8.41533 20.5768 9.05774L20.5833 9.20941V10.8333C20.5832 11.0978 20.4862 11.3531 20.3108 11.5511C20.1354 11.749 19.8936 11.876 19.6311 11.908L19.5054 11.9156L18.5087 21.8822C18.4578 22.3882 18.2306 22.8602 17.8668 23.2155C17.5029 23.5708 17.0257 23.7868 16.5187 23.8257L16.3529 23.8322H9.64707C9.13803 23.8325 8.64517 23.6534 8.25493 23.3266C7.86469 22.9997 7.60199 22.5459 7.51291 22.0447L7.49124 21.8822L6.49457 11.9156C6.23 11.9142 5.97508 11.816 5.7779 11.6396C5.58073 11.4632 5.45493 11.2207 5.42424 10.9579L5.41666 10.8333V9.20833C5.41649 8.87156 5.52096 8.54307 5.71562 8.26826C5.91027 7.99345 6.1855 7.78591 6.50324 7.67433L6.50107 7.62883L6.49999 5.95833C6.50001 5.55437 6.65049 5.1649 6.92208 4.86587C7.19367 4.56684 7.5669 4.37969 7.96899 4.34091L8.12499 4.33333H12.0109L12.0586 4.23908L12.1171 4.14916L13.2004 2.62275ZM17.2196 13.0011H8.78041L9.64707 21.6677H16.3529L17.2196 13.0011ZM18.4167 9.74999H7.58332V10.8333H18.4167V9.74999ZM17.3333 6.5H8.66666V7.58333H17.3333V6.5Z" fill="#F6C90E"/>
</g>
<defs>
<clipPath id="clip0_32_20">
<rect width="26" height="26" fill="white"/>
</clipPath>
</defs>
</svg>
