<svg width="26" height="26" viewBox="0 0 26 26" fill="none" xmlns="http://www.w3.org/2000/svg">
<path fill-rule="evenodd" clip-rule="evenodd" d="M10.9688 1.625C8.49063 1.625 6.11402 2.60943 4.36172 4.36172C2.60943 6.11401 1.625 8.49063 1.625 10.9688V11.8105C1.13098 12.0958 0.720742 12.506 0.435521 13.0001C0.150301 13.4941 0.000144958 14.0545 0.000144958 14.625C0.000144958 15.1955 0.150301 15.7559 0.435521 16.2499C0.720742 16.744 1.13098 17.1542 1.625 17.4395V19.9062C1.625 21.0914 2.09582 22.2281 2.93387 23.0661C3.77192 23.9042 4.90857 24.375 6.09375 24.375H19.9063C21.0914 24.375 22.2281 23.9042 23.0661 23.0661C23.9042 22.2281 24.375 21.0914 24.375 19.9062V17.4395C24.869 17.1542 25.2793 16.744 25.5645 16.2499C25.8497 15.7559 25.9999 15.1955 25.9999 14.625C25.9999 14.0545 25.8497 13.4941 25.5645 13.0001C25.2793 12.506 24.869 12.0958 24.375 11.8105V10.9688C24.375 8.49063 23.3906 6.11401 21.6383 4.36172C19.886 2.60943 17.5094 1.625 15.0313 1.625H10.9688ZM22.75 13.8125H3.25C3.03451 13.8125 2.82785 13.8981 2.67548 14.0505C2.5231 14.2028 2.4375 14.4095 2.4375 14.625C2.4375 14.8405 2.5231 15.0472 2.67548 15.1995C2.82785 15.3519 3.03451 15.4375 3.25 15.4375H22.75C22.9655 15.4375 23.1722 15.3519 23.3245 15.1995C23.4769 15.0472 23.5625 14.8405 23.5625 14.625C23.5625 14.4095 23.4769 14.2028 23.3245 14.0505C23.1722 13.8981 22.9655 13.8125 22.75 13.8125ZM21.9375 11.375V10.9688C21.9375 9.1371 21.2099 7.38047 19.9147 6.08529C18.6195 4.79012 16.8629 4.0625 15.0313 4.0625H10.9688C9.1371 4.0625 7.38047 4.79012 6.0853 6.08529C4.79012 7.38047 4.0625 9.1371 4.0625 10.9688V11.375H21.9375ZM17.875 17.875H21.9375V19.9062C21.9375 21.0275 21.0275 21.9375 19.9063 21.9375H6.09375C4.9725 21.9375 4.0625 21.0275 4.0625 19.9062V17.875H14.625L16.25 19.5L17.875 17.875Z" fill="#F6C90E"/>
</svg>
