<svg width="73" height="25" viewBox="0 0 73 25" fill="none" xmlns="http://www.w3.org/2000/svg">
<path d="M11.14 20C10.7667 20 10.4667 19.8467 10.24 19.54L5.62 13.46L7.44 11.6L12.22 17.92C12.4067 18.1733 12.5 18.4467 12.5 18.74C12.5 19.1133 12.36 19.42 12.08 19.66C11.8 19.8867 11.4867 20 11.14 20ZM11.38 5.9C11.7 5.9 11.96 6.03333 12.16 6.3C12.3733 6.55333 12.48 6.81333 12.48 7.08C12.48 7.36 12.36 7.62 12.12 7.86L3.74 15.88L3.64 13.02L10.4 6.36C10.7067 6.05333 11.0333 5.9 11.38 5.9ZM2.74 20C2.36667 20 2.06667 19.8867 1.84 19.66C1.61333 19.42 1.5 19.1267 1.5 18.78V7.22C1.5 6.87333 1.62 6.58667 1.86 6.36C2.1 6.12 2.40667 6 2.78 6C3.15333 6 3.44667 6.12 3.66 6.36C3.88667 6.58667 4 6.87333 4 7.22V18.78C4 19.1267 3.88667 19.42 3.66 19.66C3.43333 19.8867 3.12667 20 2.74 20Z" fill="#F6C90E"/>
<path d="M17.603 6.993L18.497 4.757C18.6455 4.38591 18.9017 4.06781 19.2327 3.84376C19.5637 3.61971 19.9543 3.49997 20.354 3.5H31.646C32.0457 3.49997 32.4362 3.61971 32.7672 3.84376C33.0982 4.06781 33.3545 4.38591 33.503 4.757L34.397 6.993C34.5675 7.41902 34.5863 7.89071 34.4503 8.32896C34.3143 8.76722 34.0317 9.14537 33.65 9.4L33.11 9.76C32.7813 9.97915 32.395 10.0961 32 10.0961C31.6049 10.0961 31.2187 9.97915 30.89 9.76L29 8.5L27.11 9.76C26.7813 9.97928 26.3951 10.0963 26 10.0963C25.6049 10.0963 25.2186 9.97928 24.89 9.76L23 8.5L21.11 9.76C20.7813 9.97928 20.3951 10.0963 20 10.0963C19.6049 10.0963 19.2186 9.97928 18.89 9.76L18.35 9.4C17.9682 9.14537 17.6857 8.76722 17.5496 8.32896C17.4136 7.89071 17.4325 7.41902 17.603 6.993Z" fill="#F6C90E"/>
<path d="M17 21.5H19M19 21.5H33M19 21.5V9.828M35 21.5H33M33 21.5V9.828M19 9.828C18.9626 9.80652 18.9259 9.78385 18.89 9.76L18.35 9.4C17.9683 9.14537 17.6857 8.76722 17.5497 8.32896C17.4137 7.89071 17.4325 7.41902 17.603 6.993L18.497 4.757C18.6455 4.38591 18.9018 4.06781 19.2328 3.84376C19.5638 3.61971 19.9543 3.49997 20.354 3.5H31.646C32.0457 3.49997 32.4362 3.61971 32.7672 3.84376C33.0982 4.06781 33.3545 4.38591 33.503 4.757L34.397 6.993C34.5675 7.41902 34.5863 7.89071 34.4503 8.32896C34.3143 8.76722 34.0317 9.14537 33.65 9.4L33.11 9.76C33.0741 9.78385 33.0374 9.80652 33 9.828M19 9.828C19.323 10.0146 19.6918 10.1071 20.0647 10.0951C20.4376 10.0831 20.7996 9.96699 21.11 9.76L23 8.5L24.89 9.76C25.2187 9.97928 25.6049 10.0963 26 10.0963C26.3951 10.0963 26.7813 9.97928 27.11 9.76L29 8.5L30.89 9.76C31.2004 9.96699 31.5624 10.0831 31.9353 10.0951C32.3082 10.1071 32.677 10.0146 33 9.828" stroke="#EEEEEE" stroke-width="2" stroke-linecap="round" stroke-linejoin="round"/>
<path d="M28 21.5V16.5C28 15.9696 27.7893 15.4609 27.4142 15.0858C27.0391 14.7107 26.5304 14.5 26 14.5C25.4696 14.5 24.9609 14.7107 24.5858 15.0858C24.2107 15.4609 24 15.9696 24 16.5V21.5" fill="#F6C90E"/>
<path d="M28 21.5V16.5C28 15.9696 27.7893 15.4609 27.4142 15.0858C27.0391 14.7107 26.5304 14.5 26 14.5C25.4696 14.5 24.9609 14.7107 24.5858 15.0858C24.2107 15.4609 24 15.9696 24 16.5V21.5" stroke="#EEEEEE" stroke-width="2"/>
<path d="M42 18.78C42 19.1267 41.8733 19.42 41.62 19.66C41.3667 19.8867 41.0733 20 40.74 20C40.3667 20 40.0667 19.8867 39.84 19.66C39.6133 19.42 39.5 19.1267 39.5 18.78V7.22C39.5 6.87333 39.62 6.58667 39.86 6.36C40.1 6.12 40.4067 6 40.78 6C41.1 6 41.38 6.12 41.62 6.36C41.8733 6.58667 42 6.87333 42 7.22V18.78ZM46.4478 20C46.0745 20 45.7411 19.8867 45.4478 19.66C45.1545 19.42 45.0078 19.1267 45.0078 18.78V7.22C45.0078 6.87333 45.1211 6.58667 45.3478 6.36C45.5878 6.12 45.8811 6 46.2278 6H51.9878C52.6811 6 53.3278 6.18667 53.9278 6.56C54.5411 6.92 55.0345 7.42667 55.4078 8.08C55.7811 8.72 55.9678 9.46 55.9678 10.3C55.9678 10.8067 55.8611 11.3 55.6478 11.78C55.4478 12.26 55.1678 12.6933 54.8078 13.08C54.4611 13.4667 54.0678 13.7667 53.6278 13.98L53.6478 13.52C54.0211 13.72 54.3278 13.96 54.5678 14.24C54.8211 14.5067 55.0145 14.8 55.1478 15.12C55.2945 15.4267 55.3811 15.76 55.4078 16.12C55.4611 16.4533 55.4945 16.7467 55.5078 17C55.5345 17.2533 55.5745 17.4667 55.6278 17.64C55.6945 17.8133 55.8145 17.9467 55.9878 18.04C56.2811 18.2133 56.4611 18.4667 56.5278 18.8C56.6078 19.12 56.5345 19.4067 56.3078 19.66C56.1611 19.8333 55.9745 19.9467 55.7478 20C55.5211 20.04 55.2945 20.04 55.0678 20C54.8411 19.9467 54.6545 19.88 54.5078 19.8C54.2811 19.6667 54.0545 19.4733 53.8278 19.22C53.6011 18.9533 53.4145 18.6 53.2678 18.16C53.1345 17.72 53.0678 17.1533 53.0678 16.46C53.0678 16.2333 53.0278 16.0267 52.9478 15.84C52.8678 15.64 52.7545 15.4733 52.6078 15.34C52.4611 15.1933 52.2745 15.0867 52.0478 15.02C51.8211 14.94 51.5545 14.9 51.2478 14.9H47.2078L47.5078 14.44V18.78C47.5078 19.1267 47.4145 19.42 47.2278 19.66C47.0411 19.8867 46.7811 20 46.4478 20ZM47.2278 12.84H51.8878C52.1278 12.84 52.3611 12.7333 52.5878 12.52C52.8145 12.2933 53.0011 11.9933 53.1478 11.62C53.2945 11.2333 53.3678 10.8133 53.3678 10.36C53.3678 9.77333 53.2078 9.28667 52.8878 8.9C52.5811 8.5 52.2478 8.3 51.8878 8.3H47.2678L47.5078 7.66V13.32L47.2278 12.84ZM71.423 13C71.423 14 71.2563 14.9333 70.923 15.8C70.5896 16.6667 70.1163 17.4333 69.503 18.1C68.903 18.7533 68.183 19.2667 67.343 19.64C66.5163 20.0133 65.6096 20.2 64.623 20.2C63.6363 20.2 62.7296 20.0133 61.903 19.64C61.0763 19.2667 60.3563 18.7533 59.743 18.1C59.143 17.4333 58.6763 16.6667 58.343 15.8C58.0096 14.9333 57.843 14 57.843 13C57.843 12 58.0096 11.0667 58.343 10.2C58.6763 9.33333 59.143 8.57333 59.743 7.92C60.3563 7.25333 61.0763 6.73333 61.903 6.36C62.7296 5.98667 63.6363 5.8 64.623 5.8C65.6096 5.8 66.5163 5.98667 67.343 6.36C68.183 6.73333 68.903 7.25333 69.503 7.92C70.1163 8.57333 70.5896 9.33333 70.923 10.2C71.2563 11.0667 71.423 12 71.423 13ZM68.823 13C68.823 12.1067 68.643 11.3 68.283 10.58C67.923 9.84667 67.4296 9.26667 66.803 8.84C66.1763 8.41333 65.4496 8.2 64.623 8.2C63.7963 8.2 63.0696 8.41333 62.443 8.84C61.8163 9.26667 61.323 9.84 60.963 10.56C60.6163 11.28 60.443 12.0933 60.443 13C60.443 13.8933 60.6163 14.7067 60.963 15.44C61.323 16.16 61.8163 16.7333 62.443 17.16C63.0696 17.5867 63.7963 17.8 64.623 17.8C65.4496 17.8 66.1763 17.5867 66.803 17.16C67.4296 16.7333 67.923 16.16 68.283 15.44C68.643 14.7067 68.823 13.8933 68.823 13Z" fill="#F6C90E"/>
</svg>
